<svg viewBox="0 0 600 600" xmlns="http://www.w3.org/2000/svg" role="img" aria-label="Radial mandala">
  <g fill="none" stroke="#C9A24B" opacity="0.3">
    <circle cx="300" cy="300" r="40" stroke-width="0.8"/>
    <circle cx="300" cy="300" r="120" stroke-width="0.8"/>
    <circle cx="300" cy="300" r="180" stroke-width="1"/>
    <circle cx="300" cy="300" r="230" stroke-width="0.6"/>
    <circle cx="300" cy="300" r="270" stroke-width="1.2"/>
    <circle cx="300" cy="300" r="285" stroke-width="0.5"/>
  </g>
  <g fill="none" stroke="#C9A24B" stroke-width="0.9" opacity="0.5">
    <path d="M300,70 C326,59.6 326,15 300,15 C274,15 274,59.6 300,70 Z" transform="rotate(0 300 300)"/>
    <path d="M300,70 C326,59.6 326,15 300,15 C274,15 274,59.6 300,70 Z" transform="rotate(15 300 300)"/>
    <path d="M300,70 C326,59.6 326,15 300,15 C274,15 274,59.6 300,70 Z" transform="rotate(30 300 300)"/>
    <path d="M300,70 C326,59.6 326,15 300,15 C274,15 274,59.6 300,70 Z" transform="rotate(45 300 300)"/>
    <path d="M300,70 C326,59.6 326,15 300,15 C274,15 274,59.6 300,70 Z" transform="rotate(60 300 300)"/>
    <path d="M300,70 C326,59.6 326,15 300,15 C274,15 274,59.6 300,70 Z" transform="rotate(75 300 300)"/>
    <path d="M300,70 C326,59.6 326,15 300,15 C274,15 274,59.6 300,70 Z" transform="rotate(90 300 300)"/>
    <path d="M300,70 C326,59.6 326,15 300,15 C274,15 274,59.6 300,70 Z" transform="rotate(105 300 300)"/>
    <path d="M300,70 C326,59.6 326,15 300,15 C274,15 274,59.6 300,70 Z" transform="rotate(120 300 300)"/>
    <path d="M300,70 C326,59.6 326,15 300,15 C274,15 274,59.6 300,70 Z" transform="rotate(135 300 300)"/>
    <path d="M300,70 C326,59.6 326,15 300,15 C274,15 274,59.6 300,70 Z" transform="rotate(150 300 300)"/>
    <path d="M300,70 C326,59.6 326,15 300,15 C274,15 274,59.6 300,70 Z" transform="rotate(165 300 300)"/>
    <path d="M300,70 C326,59.6 326,15 300,15 C274,15 274,59.6 300,70 Z" transform="rotate(180 300 300)"/>
    <path d="M300,70 C326,59.6 326,15 300,15 C274,15 274,59.6 300,70 Z" transform="rotate(195 300 300)"/>
    <path d="M300,70 C326,59.6 326,15 300,15 C274,15 274,59.6 300,70 Z" transform="rotate(210 300 300)"/>
    <path d="M300,70 C326,59.6 326,15 300,15 C274,15 274,59.6 300,70 Z" transform="rotate(225 300 300)"/>
    <path d="M300,70 C326,59.6 326,15 300,15 C274,15 274,59.6 300,70 Z" transform="rotate(240 300 300)"/>
    <path d="M300,70 C326,59.6 326,15 300,15 C274,15 274,59.6 300,70 Z" transform="rotate(255 300 300)"/>
    <path d="M300,70 C326,59.6 326,15 300,15 C274,15 274,59.6 300,70 Z" transform="rotate(270 300 300)"/>
    <path d="M300,70 C326,59.6 326,15 300,15 C274,15 274,59.6 300,70 Z" transform="rotate(285 300 300)"/>
    <path d="M300,70 C326,59.6 326,15 300,15 C274,15 274,59.6 300,70 Z" transform="rotate(300 300 300)"/>
    <path d="M300,70 C326,59.6 326,15 300,15 C274,15 274,59.6 300,70 Z" transform="rotate(315 300 300)"/>
    <path d="M300,70 C326,59.6 326,15 300,15 C274,15 274,59.6 300,70 Z" transform="rotate(330 300 300)"/>
    <path d="M300,70 C326,59.6 326,15 300,15 C274,15 274,59.6 300,70 Z" transform="rotate(345 300 300)"/>
  </g>
  <g fill="none" stroke="#C9A24B" stroke-width="1" opacity="0.55">
    <path d="M300,170 C328,158.8 328,85 300,85 C272,85 272,158.8 300,170 Z" transform="rotate(0 300 300)"/>
    <path d="M300,170 C328,158.8 328,85 300,85 C272,85 272,158.8 300,170 Z" transform="rotate(22.5 300 300)"/>
    <path d="M300,170 C328,158.8 328,85 300,85 C272,85 272,158.8 300,170 Z" transform="rotate(45 300 300)"/>
    <path d="M300,170 C328,158.8 328,85 300,85 C272,85 272,158.8 300,170 Z" transform="rotate(67.5 300 300)"/>
    <path d="M300,170 C328,158.8 328,85 300,85 C272,85 272,158.8 300,170 Z" transform="rotate(90 300 300)"/>
    <path d="M300,170 C328,158.8 328,85 300,85 C272,85 272,158.8 300,170 Z" transform="rotate(112.5 300 300)"/>
    <path d="M300,170 C328,158.8 328,85 300,85 C272,85 272,158.8 300,170 Z" transform="rotate(135 300 300)"/>
    <path d="M300,170 C328,158.8 328,85 300,85 C272,85 272,158.8 300,170 Z" transform="rotate(157.5 300 300)"/>
    <path d="M300,170 C328,158.8 328,85 300,85 C272,85 272,158.8 300,170 Z" transform="rotate(180 300 300)"/>
    <path d="M300,170 C328,158.8 328,85 300,85 C272,85 272,158.8 300,170 Z" transform="rotate(202.5 300 300)"/>
    <path d="M300,170 C328,158.8 328,85 300,85 C272,85 272,158.8 300,170 Z" transform="rotate(225 300 300)"/>
    <path d="M300,170 C328,158.8 328,85 300,85 C272,85 272,158.8 300,170 Z" transform="rotate(247.5 300 300)"/>
    <path d="M300,170 C328,158.8 328,85 300,85 C272,85 272,158.8 300,170 Z" transform="rotate(270 300 300)"/>
    <path d="M300,170 C328,158.8 328,85 300,85 C272,85 272,158.8 300,170 Z" transform="rotate(292.5 300 300)"/>
    <path d="M300,170 C328,158.8 328,85 300,85 C272,85 272,158.8 300,170 Z" transform="rotate(315 300 300)"/>
    <path d="M300,170 C328,158.8 328,85 300,85 C272,85 272,158.8 300,170 Z" transform="rotate(337.5 300 300)"/>
  </g>
  <g fill="none" stroke="#C9A24B" stroke-width="1" opacity="0.6">
    <path d="M300,240 C322,231.2 322,175 300,175 C278,175 278,231.2 300,240 Z" transform="rotate(0 300 300)"/>
    <path d="M300,240 C322,231.2 322,175 300,175 C278,175 278,231.2 300,240 Z" transform="rotate(30 300 300)"/>
    <path d="M300,240 C322,231.2 322,175 300,175 C278,175 278,231.2 300,240 Z" transform="rotate(60 300 300)"/>
    <path d="M300,240 C322,231.2 322,175 300,175 C278,175 278,231.2 300,240 Z" transform="rotate(90 300 300)"/>
    <path d="M300,240 C322,231.2 322,175 300,175 C278,175 278,231.2 300,240 Z" transform="rotate(120 300 300)"/>
    <path d="M300,240 C322,231.2 322,175 300,175 C278,175 278,231.2 300,240 Z" transform="rotate(150 300 300)"/>
    <path d="M300,240 C322,231.2 322,175 300,175 C278,175 278,231.2 300,240 Z" transform="rotate(180 300 300)"/>
    <path d="M300,240 C322,231.2 322,175 300,175 C278,175 278,231.2 300,240 Z" transform="rotate(210 300 300)"/>
    <path d="M300,240 C322,231.2 322,175 300,175 C278,175 278,231.2 300,240 Z" transform="rotate(240 300 300)"/>
    <path d="M300,240 C322,231.2 322,175 300,175 C278,175 278,231.2 300,240 Z" transform="rotate(270 300 300)"/>
    <path d="M300,240 C322,231.2 322,175 300,175 C278,175 278,231.2 300,240 Z" transform="rotate(300 300 300)"/>
    <path d="M300,240 C322,231.2 322,175 300,175 C278,175 278,231.2 300,240 Z" transform="rotate(330 300 300)"/>
  </g>
  <g fill="none" stroke-width="1.4" stroke-linecap="round" opacity="0.4">
    <line x1="300.00" y1="150.00" x2="300.00" y2="122.00" stroke="#9B5DE5"/>
    <line x1="365.08" y1="164.85" x2="377.23" y2="139.63" stroke="#5B5BD6"/>
    <line x1="417.27" y1="206.48" x2="439.17" y2="189.02" stroke="#2D9CDB"/>
    <line x1="446.24" y1="266.62" x2="473.54" y2="260.39" stroke="#3FA34D"/>
    <line x1="446.24" y1="333.38" x2="473.54" y2="339.61" stroke="#F2C14E"/>
    <line x1="417.27" y1="393.52" x2="439.17" y2="410.98" stroke="#E8833A"/>
    <line x1="365.08" y1="435.15" x2="377.23" y2="460.37" stroke="#C84B4B"/>
    <line x1="300.00" y1="450.00" x2="300.00" y2="478.00" stroke="#9B5DE5"/>
    <line x1="234.92" y1="435.15" x2="222.77" y2="460.37" stroke="#5B5BD6"/>
    <line x1="182.73" y1="393.52" x2="160.83" y2="410.98" stroke="#2D9CDB"/>
    <line x1="153.76" y1="333.38" x2="126.46" y2="339.61" stroke="#3FA34D"/>
    <line x1="153.76" y1="266.62" x2="126.46" y2="260.39" stroke="#F2C14E"/>
    <line x1="182.73" y1="206.48" x2="160.83" y2="189.02" stroke="#E8833A"/>
    <line x1="234.92" y1="164.85" x2="222.77" y2="139.63" stroke="#C84B4B"/>
  </g>
  <g fill="none" stroke="#C9A24B" stroke-width="0.6" opacity="0.4" stroke-linecap="round">
    <line x1="300.00" y1="65.00" x2="300.00" y2="32.00"/>
    <line x1="330.67" y1="67.01" x2="334.98" y2="34.29"/>
    <line x1="360.82" y1="73.01" x2="369.36" y2="41.13"/>
    <line x1="389.93" y1="82.89" x2="402.56" y2="52.40"/>
    <line x1="417.50" y1="96.48" x2="434.00" y2="67.91"/>
    <line x1="443.06" y1="113.56" x2="463.15" y2="87.38"/>
    <line x1="466.17" y1="133.83" x2="489.50" y2="110.50"/>
    <line x1="486.44" y1="156.94" x2="512.62" y2="136.85"/>
    <line x1="503.52" y1="182.50" x2="532.09" y2="166.00"/>
    <line x1="517.11" y1="210.07" x2="547.60" y2="197.44"/>
    <line x1="526.99" y1="239.18" x2="558.87" y2="230.64"/>
    <line x1="532.99" y1="269.33" x2="565.71" y2="265.02"/>
    <line x1="535.00" y1="300.00" x2="568.00" y2="300.00"/>
    <line x1="532.99" y1="330.67" x2="565.71" y2="334.98"/>
    <line x1="526.99" y1="360.82" x2="558.87" y2="369.36"/>
    <line x1="517.11" y1="389.93" x2="547.60" y2="402.56"/>
    <line x1="503.52" y1="417.50" x2="532.09" y2="434.00"/>
    <line x1="486.44" y1="443.06" x2="512.62" y2="463.15"/>
    <line x1="466.17" y1="466.17" x2="489.50" y2="489.50"/>
    <line x1="443.06" y1="486.44" x2="463.15" y2="512.62"/>
    <line x1="417.50" y1="503.52" x2="434.00" y2="532.09"/>
    <line x1="389.93" y1="517.11" x2="402.56" y2="547.60"/>
    <line x1="360.82" y1="526.99" x2="369.36" y2="558.87"/>
    <line x1="330.67" y1="532.99" x2="334.98" y2="565.71"/>
    <line x1="300.00" y1="535.00" x2="300.00" y2="568.00"/>
    <line x1="269.33" y1="532.99" x2="265.02" y2="565.71"/>
    <line x1="239.18" y1="526.99" x2="230.64" y2="558.87"/>
    <line x1="210.07" y1="517.11" x2="197.44" y2="547.60"/>
    <line x1="182.50" y1="503.52" x2="166.00" y2="532.09"/>
    <line x1="156.94" y1="486.44" x2="136.85" y2="512.62"/>
    <line x1="133.83" y1="466.17" x2="110.50" y2="489.50"/>
    <line x1="113.56" y1="443.06" x2="87.38" y2="463.15"/>
    <line x1="96.48" y1="417.50" x2="67.91" y2="434.00"/>
    <line x1="82.89" y1="389.93" x2="52.40" y2="402.56"/>
    <line x1="73.01" y1="360.82" x2="41.13" y2="369.36"/>
    <line x1="67.01" y1="330.67" x2="34.29" y2="334.98"/>
    <line x1="65.00" y1="300.00" x2="32.00" y2="300.00"/>
    <line x1="67.01" y1="269.33" x2="34.29" y2="265.02"/>
    <line x1="73.01" y1="239.18" x2="41.13" y2="230.64"/>
    <line x1="82.89" y1="210.07" x2="52.40" y2="197.44"/>
    <line x1="96.48" y1="182.50" x2="67.91" y2="166.00"/>
    <line x1="113.56" y1="156.94" x2="87.38" y2="136.85"/>
    <line x1="133.83" y1="133.83" x2="110.50" y2="110.50"/>
    <line x1="156.94" y1="113.56" x2="136.85" y2="87.38"/>
    <line x1="182.50" y1="96.48" x2="166.00" y2="67.91"/>
    <line x1="210.07" y1="82.89" x2="197.44" y2="52.40"/>
    <line x1="239.18" y1="73.01" x2="230.64" y2="41.13"/>
    <line x1="269.33" y1="67.01" x2="265.02" y2="34.29"/>
  </g>
  <g fill="#C9A24B" opacity="0.55">
    <circle cx="300.00" cy="95.00" r="1.8"/>
    <circle cx="353.06" cy="101.99" r="1.8"/>
    <circle cx="402.50" cy="122.46" r="1.8"/>
    <circle cx="444.96" cy="155.04" r="1.8"/>
    <circle cx="477.54" cy="197.50" r="1.8"/>
    <circle cx="498.01" cy="246.94" r="1.8"/>
    <circle cx="505.00" cy="300.00" r="1.8"/>
    <circle cx="498.01" cy="353.06" r="1.8"/>
    <circle cx="477.54" cy="402.50" r="1.8"/>
    <circle cx="444.96" cy="444.96" r="1.8"/>
    <circle cx="402.50" cy="477.54" r="1.8"/>
    <circle cx="353.06" cy="498.01" r="1.8"/>
    <circle cx="300.00" cy="505.00" r="1.8"/>
    <circle cx="246.94" cy="498.01" r="1.8"/>
    <circle cx="197.50" cy="477.54" r="1.8"/>
    <circle cx="155.04" cy="444.96" r="1.8"/>
    <circle cx="122.46" cy="402.50" r="1.8"/>
    <circle cx="101.99" cy="353.06" r="1.8"/>
    <circle cx="95.00" cy="300.00" r="1.8"/>
    <circle cx="101.99" cy="246.94" r="1.8"/>
    <circle cx="122.46" cy="197.50" r="1.8"/>
    <circle cx="155.04" cy="155.04" r="1.8"/>
    <circle cx="197.50" cy="122.46" r="1.8"/>
    <circle cx="246.94" cy="101.99" r="1.8"/>
  </g>
  <g fill="#C9A24B" opacity="0.6">
    <circle cx="300.00" cy="200.00" r="2.2"/>
    <circle cx="350.00" cy="213.40" r="2.2"/>
    <circle cx="386.60" cy="250.00" r="2.2"/>
    <circle cx="400.00" cy="300.00" r="2.2"/>
    <circle cx="386.60" cy="350.00" r="2.2"/>
    <circle cx="350.00" cy="386.60" r="2.2"/>
    <circle cx="300.00" cy="400.00" r="2.2"/>
    <circle cx="250.00" cy="386.60" r="2.2"/>
    <circle cx="213.40" cy="350.00" r="2.2"/>
    <circle cx="200.00" cy="300.00" r="2.2"/>
    <circle cx="213.40" cy="250.00" r="2.2"/>
    <circle cx="250.00" cy="213.40" r="2.2"/>
  </g>
  <circle cx="300" cy="300" r="14" fill="none" stroke="#C9A24B" stroke-width="1" opacity="0.7"/>
  <circle cx="300" cy="300" r="5" fill="#C9A24B" opacity="0.8"/>
</svg>
