<svg viewBox="0 0 600 600" xmlns="http://www.w3.org/2000/svg" role="img" aria-label="Metatron's Cube">
  <!-- connecting lines (all 13 nodes) in soft teal -->
  <g fill="none" stroke="#5FA8A0" stroke-width="0.7" opacity="0.35" stroke-linecap="round">
    <line x1="300" y1="300" x2="300" y2="230"/>
    <line x1="300" y1="300" x2="360.62" y2="265"/>
    <line x1="300" y1="300" x2="360.62" y2="335"/>
    <line x1="300" y1="300" x2="300" y2="370"/>
    <line x1="300" y1="300" x2="239.38" y2="335"/>
    <line x1="300" y1="300" x2="239.38" y2="265"/>
    <line x1="300" y1="300" x2="300" y2="160"/>
    <line x1="300" y1="300" x2="421.24" y2="230"/>
    <line x1="300" y1="300" x2="421.24" y2="370"/>
    <line x1="300" y1="300" x2="300" y2="440"/>
    <line x1="300" y1="300" x2="178.76" y2="370"/>
    <line x1="300" y1="300" x2="178.76" y2="230"/>
    <line x1="300" y1="230" x2="360.62" y2="265"/>
    <line x1="300" y1="230" x2="360.62" y2="335"/>
    <line x1="300" y1="230" x2="300" y2="370"/>
    <line x1="300" y1="230" x2="239.38" y2="335"/>
    <line x1="300" y1="230" x2="239.38" y2="265"/>
    <line x1="300" y1="230" x2="300" y2="160"/>
    <line x1="300" y1="230" x2="421.24" y2="230"/>
    <line x1="300" y1="230" x2="421.24" y2="370"/>
    <line x1="300" y1="230" x2="300" y2="440"/>
    <line x1="300" y1="230" x2="178.76" y2="370"/>
    <line x1="300" y1="230" x2="178.76" y2="230"/>
    <line x1="360.62" y1="265" x2="360.62" y2="335"/>
    <line x1="360.62" y1="265" x2="300" y2="370"/>
    <line x1="360.62" y1="265" x2="239.38" y2="335"/>
    <line x1="360.62" y1="265" x2="239.38" y2="265"/>
    <line x1="360.62" y1="265" x2="300" y2="160"/>
    <line x1="360.62" y1="265" x2="421.24" y2="230"/>
    <line x1="360.62" y1="265" x2="421.24" y2="370"/>
    <line x1="360.62" y1="265" x2="300" y2="440"/>
    <line x1="360.62" y1="265" x2="178.76" y2="370"/>
    <line x1="360.62" y1="265" x2="178.76" y2="230"/>
    <line x1="360.62" y1="335" x2="300" y2="370"/>
    <line x1="360.62" y1="335" x2="239.38" y2="335"/>
    <line x1="360.62" y1="335" x2="239.38" y2="265"/>
    <line x1="360.62" y1="335" x2="300" y2="160"/>
    <line x1="360.62" y1="335" x2="421.24" y2="230"/>
    <line x1="360.62" y1="335" x2="421.24" y2="370"/>
    <line x1="360.62" y1="335" x2="300" y2="440"/>
    <line x1="360.62" y1="335" x2="178.76" y2="370"/>
    <line x1="360.62" y1="335" x2="178.76" y2="230"/>
    <line x1="300" y1="370" x2="239.38" y2="335"/>
    <line x1="300" y1="370" x2="239.38" y2="265"/>
    <line x1="300" y1="370" x2="300" y2="160"/>
    <line x1="300" y1="370" x2="421.24" y2="230"/>
    <line x1="300" y1="370" x2="421.24" y2="370"/>
    <line x1="300" y1="370" x2="300" y2="440"/>
    <line x1="300" y1="370" x2="178.76" y2="370"/>
    <line x1="300" y1="370" x2="178.76" y2="230"/>
    <line x1="239.38" y1="335" x2="239.38" y2="265"/>
    <line x1="239.38" y1="335" x2="300" y2="160"/>
    <line x1="239.38" y1="335" x2="421.24" y2="230"/>
    <line x1="239.38" y1="335" x2="421.24" y2="370"/>
    <line x1="239.38" y1="335" x2="300" y2="440"/>
    <line x1="239.38" y1="335" x2="178.76" y2="370"/>
    <line x1="239.38" y1="335" x2="178.76" y2="230"/>
    <line x1="239.38" y1="265" x2="300" y2="160"/>
    <line x1="239.38" y1="265" x2="421.24" y2="230"/>
    <line x1="239.38" y1="265" x2="421.24" y2="370"/>
    <line x1="239.38" y1="265" x2="300" y2="440"/>
    <line x1="239.38" y1="265" x2="178.76" y2="370"/>
    <line x1="239.38" y1="265" x2="178.76" y2="230"/>
    <line x1="300" y1="160" x2="421.24" y2="230"/>
    <line x1="300" y1="160" x2="421.24" y2="370"/>
    <line x1="300" y1="160" x2="300" y2="440"/>
    <line x1="300" y1="160" x2="178.76" y2="370"/>
    <line x1="300" y1="160" x2="178.76" y2="230"/>
    <line x1="421.24" y1="230" x2="421.24" y2="370"/>
    <line x1="421.24" y1="230" x2="300" y2="440"/>
    <line x1="421.24" y1="230" x2="178.76" y2="370"/>
    <line x1="421.24" y1="230" x2="178.76" y2="230"/>
    <line x1="421.24" y1="370" x2="300" y2="440"/>
    <line x1="421.24" y1="370" x2="178.76" y2="370"/>
    <line x1="421.24" y1="370" x2="178.76" y2="230"/>
    <line x1="300" y1="440" x2="178.76" y2="370"/>
    <line x1="300" y1="440" x2="178.76" y2="230"/>
    <line x1="178.76" y1="370" x2="178.76" y2="230"/>
  </g>
  <!-- 13 circles in gold -->
  <g fill="none" stroke="#C9A24B" stroke-width="1.1" opacity="0.6">
    <circle cx="300" cy="300" r="36"/>
    <circle cx="300" cy="230" r="36"/>
    <circle cx="360.62" cy="265" r="36"/>
    <circle cx="360.62" cy="335" r="36"/>
    <circle cx="300" cy="370" r="36"/>
    <circle cx="239.38" cy="335" r="36"/>
    <circle cx="239.38" cy="265" r="36"/>
    <circle cx="300" cy="160" r="36"/>
    <circle cx="421.24" cy="230" r="36"/>
    <circle cx="421.24" cy="370" r="36"/>
    <circle cx="300" cy="440" r="36"/>
    <circle cx="178.76" cy="370" r="36"/>
    <circle cx="178.76" cy="230" r="36"/>
  </g>
</svg>
